<svg xmlns="http://www.w3.org/2000/svg" xmlns:xlink="http://www.w3.org/1999/xlink" width="600" zoomAndPan="magnify" viewBox="0 0 450 449.999984" height="600" preserveAspectRatio="xMidYMid meet" version="1.0"><defs><clipPath id="9ae8a12d81"><path d="M 26 8 L 426 8 L 426 359.128906 L 26 359.128906 Z M 26 8 " clip-rule="nonzero"/></clipPath><clipPath id="6f74f826e5"><path d="M 232.878906 12.371094 L 423.957031 346.757812 C 425.417969 349.316406 425.410156 352.460938 423.929688 355.011719 C 422.449219 357.5625 419.726562 359.128906 416.777344 359.128906 L 34.84375 359.128906 C 31.894531 359.128906 29.167969 357.5625 27.6875 355.011719 C 26.210938 352.460938 26.199219 349.316406 27.660156 346.757812 L 218.738281 12.371094 C 220.1875 9.835938 222.886719 8.269531 225.808594 8.269531 C 228.730469 8.269531 231.429688 9.835938 232.878906 12.371094 " clip-rule="nonzero"/></clipPath><clipPath id="d778825aeb"><path d="M 26 8 L 425 8 L 425 359.25 L 26 359.25 Z M 26 8 " clip-rule="nonzero"/></clipPath><clipPath id="5f590bc042"><path d="M 232.785156 12.375 L 423.773438 346.875 C 425.234375 349.433594 425.226562 352.578125 423.746094 355.128906 C 422.269531 357.679688 419.542969 359.25 416.597656 359.25 L 34.835938 359.25 C 31.890625 359.25 29.164062 357.679688 27.6875 355.128906 C 26.207031 352.578125 26.199219 349.433594 27.660156 346.875 L 218.648438 12.375 C 220.097656 9.839844 222.796875 8.273438 225.714844 8.273438 C 228.636719 8.273438 231.335938 9.839844 232.785156 12.375 " clip-rule="nonzero"/></clipPath><clipPath id="c5549c3aa2"><path d="M 362.238281 19.699219 L 431.058594 19.699219 L 431.058594 88.519531 L 362.238281 88.519531 Z M 362.238281 19.699219 " clip-rule="nonzero"/></clipPath><clipPath id="ef72b84c7b"><path d="M 396.648438 19.699219 C 377.644531 19.699219 362.238281 35.105469 362.238281 54.109375 C 362.238281 73.113281 377.644531 88.519531 396.648438 88.519531 C 415.652344 88.519531 431.058594 73.113281 431.058594 54.109375 C 431.058594 35.105469 415.652344 19.699219 396.648438 19.699219 " clip-rule="nonzero"/></clipPath></defs><rect x="-45" width="540" fill="#ffffff" y="-44.999998" height="539.99998" fill-opacity="1"/><rect x="-45" width="540" fill="#ffffff" y="-44.999998" height="539.99998" fill-opacity="1"/><g clip-path="url(#9ae8a12d81)"><g clip-path="url(#6f74f826e5)"><path fill="#c4c1f1" d="M 20.59375 0 L 431.027344 0 L 431.027344 359.128906 L 20.59375 359.128906 Z M 20.59375 0 " fill-opacity="1" fill-rule="nonzero"/></g></g><g clip-path="url(#d778825aeb)"><g clip-path="url(#5f590bc042)"><path stroke-linecap="butt" transform="matrix(0.749679, 0, 0, 0.750269, 20.592639, -0.00002157)" fill="none" stroke-linejoin="miter" d="M 283.044612 16.494109 L 537.804792 462.334098 C 539.753544 465.744332 539.743123 469.935536 537.768319 473.335358 C 535.798725 476.735179 532.16175 478.828178 528.232984 478.828178 L 18.999204 478.828178 C 15.070438 478.828178 11.433463 476.735179 9.463869 473.335358 C 7.489065 469.935536 7.478644 465.744332 9.427395 462.334098 L 264.187575 16.494109 C 266.120695 13.115113 269.721196 11.027321 273.613489 11.027321 C 277.510992 11.027321 281.111492 13.115113 283.044612 16.494109 " stroke="#000000" stroke-width="50" stroke-opacity="1" stroke-miterlimit="4"/></g></g><path stroke-linecap="round" transform="matrix(0.750397, -0.00198324, 0.00198218, 0.749997, 35.198666, 411.491416)" fill="none" stroke-linejoin="miter" d="M 16.500481 16.497846 L 511.228108 16.498769 " stroke="#000000" stroke-width="33" stroke-opacity="1" stroke-miterlimit="4"/><g clip-path="url(#c5549c3aa2)"><g clip-path="url(#ef72b84c7b)"><path fill="#f39c76" d="M 362.238281 19.699219 L 431.058594 19.699219 L 431.058594 88.519531 L 362.238281 88.519531 Z M 362.238281 19.699219 " fill-opacity="1" fill-rule="nonzero"/></g></g><path stroke-linecap="round" transform="matrix(0.749613, 0, 0, 0.75, 35.198655, 410.968384)" fill="none" stroke-linejoin="miter" d="M 16.498853 16.500489 L 104.565152 16.500489 " stroke="#f39c76" stroke-width="33" stroke-opacity="1" stroke-miterlimit="4"/></svg>