<svg xmlns="http://www.w3.org/2000/svg" xmlns:xlink="http://www.w3.org/1999/xlink" width="600" zoomAndPan="magnify" viewBox="0 0 450 449.999984" height="600" preserveAspectRatio="xMidYMid meet" version="1.0"><defs><filter x="0%" y="0%" width="100%" height="100%" id="9140839ae6"><feColorMatrix values="0 0 0 0 1 0 0 0 0 1 0 0 0 0 1 0 0 0 1 0" color-interpolation-filters="sRGB"/></filter><clipPath id="5b90826e1f"><path d="M 67 257 L 176 257 L 176 380.121094 L 67 380.121094 Z M 67 257 " clip-rule="nonzero"/></clipPath><clipPath id="4449d7656b"><path d="M 225 347 L 440.652344 347 L 440.652344 360 L 225 360 Z M 225 347 " clip-rule="nonzero"/></clipPath><clipPath id="464eda0f7d"><path d="M 225 346 L 440.652344 346 L 440.652344 360 L 225 360 Z M 225 346 " clip-rule="nonzero"/></clipPath><mask id="1e84e71b88"><g filter="url(#9140839ae6)"><rect x="-45" width="540" fill="#000000" y="-44.999998" height="539.99998" fill-opacity="0.27"/></g></mask><clipPath id="1e3cd84501"><path d="M 0.359375 1 L 215.652344 1 L 215.652344 13.761719 L 0.359375 13.761719 Z M 0.359375 1 " clip-rule="nonzero"/></clipPath><clipPath id="07d5694875"><rect x="0" width="216" y="0" height="14"/></clipPath><mask id="91e214cfe3"><g filter="url(#9140839ae6)"><rect x="-45" width="540" fill="#000000" y="-44.999998" height="539.99998" fill-opacity="0.46"/></g></mask><clipPath id="9a9d98d2ee"><path d="M 0.28125 1 L 112 1 L 112 95.679688 L 0.28125 95.679688 Z M 0.28125 1 " clip-rule="nonzero"/></clipPath><clipPath id="2a73db7ede"><rect x="0" width="113" y="0" height="96"/></clipPath><mask id="07c9c3fa77"><g filter="url(#9140839ae6)"><rect x="-45" width="540" fill="#000000" y="-44.999998" height="539.99998" fill-opacity="0.56"/></g></mask><clipPath id="c2b189e824"><path d="M 1 1 L 10.71875 1 L 10.71875 6 L 1 6 Z M 1 1 " clip-rule="nonzero"/></clipPath><clipPath id="ff876a5e31"><rect x="0" width="11" y="0" height="7"/></clipPath></defs><rect x="-45" width="540" fill="#ffffff" y="-44.999998" height="539.99998" fill-opacity="1"/><rect x="-45" width="540" fill="#ffffff" y="-44.999998" height="539.99998" fill-opacity="1"/><path fill="#000000" d="M 107.933594 104.917969 C 107.417969 109.234375 106.902344 113.605469 107.496094 117.910156 C 107.683594 119.292969 107.996094 120.683594 108.703125 121.886719 C 109.40625 123.089844 110.558594 124.089844 111.929688 124.34375 C 113.199219 123.140625 114.953125 121.710938 115.714844 120.140625 C 116.699219 118.121094 116.695312 115.769531 116.457031 113.535156 C 116.210938 111.226562 115.703125 108.867188 114.363281 106.96875 C 113.023438 105.070312 110.226562 104.53125 107.933594 104.917969 Z M 107.933594 104.917969 " fill-opacity="1" fill-rule="nonzero"/><g clip-path="url(#5b90826e1f)"><path fill="#7ec4cf" d="M 175.035156 360.339844 C 174.921875 343.351562 173.230469 324.457031 172.875 313.902344 C 171.148438 262.550781 168.375 257.144531 168.375 257.144531 L 116.917969 262.050781 L 75.628906 267.085938 L 67.511719 379.796875 L 122.152344 379.957031 L 125.769531 348.253906 L 126.328125 379.96875 L 174.984375 380.113281 Z M 175.035156 360.339844 " fill-opacity="1" fill-rule="nonzero"/></g><path fill="#000000" d="M 125.769531 348.625 C 125.625 348.625 125.484375 348.542969 125.425781 348.398438 C 125.34375 348.210938 125.429688 347.992188 125.621094 347.910156 L 147.539062 338.480469 C 147.730469 338.398438 147.949219 338.488281 148.03125 338.675781 C 148.113281 338.867188 148.027344 339.085938 147.835938 339.167969 L 125.917969 348.597656 C 125.867188 348.617188 125.816406 348.625 125.769531 348.625 Z M 125.769531 348.625 " fill-opacity="1" fill-rule="nonzero"/><g clip-path="url(#4449d7656b)"><path fill="#ffffff" d="M 225.933594 347.515625 L 440.394531 347.515625 L 440.394531 359.097656 L 225.933594 359.097656 Z M 225.933594 347.515625 " fill-opacity="1" fill-rule="nonzero"/></g><g clip-path="url(#464eda0f7d)"><g mask="url(#1e84e71b88)"><g transform="matrix(1, 0, 0, 1, 225, 346)"><g clip-path="url(#07d5694875)"><g clip-path="url(#1e3cd84501)"><path fill="#000000" d="M 0.933594 1.515625 L 215.394531 1.515625 L 215.394531 13.097656 L 0.933594 13.097656 Z M 0.933594 1.515625 " fill-opacity="1" fill-rule="nonzero"/></g></g></g></g></g><path fill="#000000" d="M 338.59375 185.390625 L 325.613281 258.398438 L 387.023438 264.285156 L 384.8125 197.625 Z M 338.59375 185.390625 " fill-opacity="1" fill-rule="nonzero"/><path fill="#f4a27a" d="M 360.371094 211.085938 L 363.417969 256.378906 L 341.253906 256.832031 L 341.734375 226.972656 Z M 360.371094 211.085938 " fill-opacity="1" fill-rule="nonzero"/><path fill="#c3a5c2" d="M 334.140625 251.953125 L 331.53125 252.269531 C 325.207031 253.035156 317.59375 258.988281 315.328125 264.9375 L 298.273438 304.917969 L 305.402344 275.234375 L 284.160156 270.953125 L 275.628906 311.667969 C 273.902344 317.753906 273.597656 324.160156 274.746094 330.378906 C 275.976562 337.082031 281.765625 341.988281 288.585938 342.113281 C 296.304688 342.253906 303.527344 338.304688 307.566406 331.726562 L 321.246094 309.449219 L 336.617188 346.71875 L 415.695312 352.5 C 424.484375 353.144531 432.429688 347.28125 434.402344 338.695312 C 436.117188 331.226562 435.058594 323.386719 431.417969 316.640625 L 407.414062 268.609375 C 406.324219 266.429688 404.878906 264.332031 403.167969 262.394531 C 396.882812 255.265625 387.65625 251.429688 378.148438 251.390625 L 365.933594 251.34375 Z M 334.140625 251.953125 " fill-opacity="1" fill-rule="nonzero"/><path fill="#000000" d="M 329.683594 191.347656 C 329.683594 191.347656 314.09375 179.164062 330.046875 169.175781 C 340.941406 162.351562 359.527344 171.398438 359.527344 171.398438 Z M 329.683594 191.347656 " fill-opacity="1" fill-rule="nonzero"/><path fill="#000000" d="M 360.402344 171.582031 C 361.363281 171.777344 362.316406 172.015625 363.261719 172.292969 C 364.203125 172.570312 365.128906 172.882812 366.042969 173.238281 C 366.953125 173.589844 367.847656 173.976562 368.722656 174.402344 C 369.59375 174.824219 370.445312 175.285156 371.269531 175.777344 C 372.097656 176.269531 372.894531 176.792969 373.667969 177.351562 C 374.4375 177.90625 375.179688 178.492188 375.886719 179.105469 C 376.59375 179.71875 377.269531 180.359375 377.90625 181.027344 C 378.546875 181.691406 379.148438 182.382812 379.710938 183.09375 C 380.273438 183.804688 380.796875 184.535156 381.28125 185.289062 C 381.761719 186.039062 382.203125 186.804688 382.597656 187.585938 C 382.996094 188.371094 383.347656 189.164062 383.652344 189.96875 C 383.960938 190.777344 384.222656 191.589844 384.4375 192.414062 C 384.652344 193.238281 384.816406 194.0625 384.9375 194.894531 C 385.058594 195.726562 385.128906 196.558594 385.15625 197.390625 C 385.179688 198.222656 385.15625 199.050781 385.085938 199.875 C 385.011719 200.699219 384.894531 201.515625 384.726562 202.320312 C 384.5625 203.128906 384.347656 203.925781 384.085938 204.710938 C 383.828125 205.496094 383.519531 206.265625 383.167969 207.023438 C 382.816406 207.777344 382.421875 208.511719 381.984375 209.226562 C 381.542969 209.941406 381.0625 210.636719 380.539062 211.308594 C 380.015625 211.980469 379.457031 212.625 378.855469 213.242188 C 378.253906 213.863281 377.617188 214.453125 376.941406 215.015625 C 376.269531 215.578125 375.5625 216.109375 374.820312 216.609375 C 374.082031 217.105469 373.3125 217.570312 372.511719 218.003906 C 371.710938 218.433594 370.886719 218.832031 370.039062 219.191406 C 369.1875 219.550781 368.316406 219.871094 367.421875 220.15625 C 366.527344 220.441406 365.617188 220.683594 364.6875 220.890625 C 363.761719 221.097656 362.820312 221.261719 361.863281 221.390625 C 360.910156 221.515625 359.949219 221.601562 358.980469 221.644531 C 358.007812 221.691406 357.035156 221.695312 356.058594 221.65625 C 355.078125 221.621094 354.101562 221.542969 353.128906 221.425781 C 352.152344 221.308594 351.183594 221.148438 350.21875 220.949219 C 349.257812 220.753906 348.304688 220.515625 347.363281 220.238281 C 346.417969 219.960938 345.492188 219.648438 344.578125 219.296875 C 343.667969 218.941406 342.773438 218.554688 341.902344 218.128906 C 341.027344 217.707031 340.175781 217.246094 339.351562 216.753906 C 338.523438 216.261719 337.726562 215.738281 336.953125 215.179688 C 336.183594 214.625 335.445312 214.039062 334.734375 213.425781 C 334.027344 212.8125 333.351562 212.171875 332.714844 211.503906 C 332.074219 210.839844 331.472656 210.148438 330.910156 209.4375 C 330.347656 208.726562 329.824219 207.996094 329.34375 207.242188 C 328.859375 206.492188 328.421875 205.726562 328.023438 204.945312 C 327.628906 204.160156 327.277344 203.367188 326.96875 202.5625 C 326.660156 201.753906 326.398438 200.941406 326.1875 200.117188 C 325.972656 199.292969 325.804688 198.46875 325.683594 197.636719 C 325.5625 196.804688 325.492188 195.972656 325.464844 195.140625 C 325.441406 194.308594 325.464844 193.480469 325.539062 192.65625 C 325.609375 191.832031 325.726562 191.019531 325.894531 190.210938 C 326.0625 189.402344 326.273438 188.605469 326.535156 187.820312 C 326.796875 187.035156 327.101562 186.265625 327.453125 185.507812 C 327.804688 184.753906 328.199219 184.019531 328.640625 183.304688 C 329.078125 182.589844 329.558594 181.894531 330.082031 181.222656 C 330.605469 180.550781 331.167969 179.90625 331.769531 179.289062 C 332.367188 178.667969 333.007812 178.078125 333.679688 177.515625 C 334.355469 176.953125 335.0625 176.421875 335.800781 175.921875 C 336.542969 175.425781 337.3125 174.960938 338.109375 174.527344 C 338.910156 174.097656 339.734375 173.699219 340.585938 173.339844 C 341.433594 172.980469 342.308594 172.660156 343.199219 172.375 C 344.09375 172.089844 345.003906 171.847656 345.933594 171.640625 C 346.863281 171.433594 347.804688 171.269531 348.757812 171.140625 C 349.710938 171.015625 350.671875 170.929688 351.644531 170.886719 C 352.613281 170.839844 353.585938 170.835938 354.566406 170.875 C 355.542969 170.910156 356.519531 170.988281 357.492188 171.105469 C 358.46875 171.222656 359.4375 171.382812 360.402344 171.582031 Z M 360.402344 171.582031 " fill-opacity="1" fill-rule="nonzero"/><path fill="#000000" d="M 341.734375 226.972656 L 358.066406 224.992188 L 341.480469 242.71875 Z M 341.734375 226.972656 " fill-opacity="1" fill-rule="nonzero"/><path fill="#f4a27a" d="M 365.496094 213.273438 C 358.058594 232.773438 341.785156 231.097656 341.785156 231.097656 C 327.960938 230.886719 321.210938 222.011719 319.917969 211.1875 C 318.925781 202.863281 324.476562 190.53125 327.457031 183.492188 C 328.460938 181.121094 330.167969 179.078125 332.441406 177.84375 C 351.910156 167.253906 377.347656 182.207031 365.496094 213.273438 Z M 365.496094 213.273438 " fill-opacity="1" fill-rule="nonzero"/><path fill="#000000" d="M 329.695312 209.882812 L 327.839844 209.128906 C 327.226562 208.816406 326.960938 208.082031 327.273438 207.394531 L 329.1875 204.3125 C 329.324219 204.09375 329.613281 204.027344 329.835938 204.160156 C 330.054688 204.296875 330.121094 204.589844 329.988281 204.808594 L 328.105469 207.832031 C 328.027344 208.003906 328.097656 208.203125 328.230469 208.273438 L 330.054688 209.011719 C 330.292969 209.109375 330.410156 209.382812 330.3125 209.625 C 330.238281 209.804688 330.0625 209.917969 329.875 209.917969 C 329.8125 209.917969 329.753906 209.90625 329.695312 209.882812 Z M 329.695312 209.882812 " fill-opacity="1" fill-rule="nonzero"/><path fill="#000000" d="M 342.375 202.914062 C 342.375 203.167969 342.328125 203.410156 342.230469 203.644531 C 342.132812 203.878906 341.996094 204.085938 341.816406 204.265625 C 341.636719 204.445312 341.429688 204.582031 341.195312 204.679688 C 340.960938 204.777344 340.71875 204.824219 340.464844 204.824219 C 340.210938 204.824219 339.964844 204.777344 339.730469 204.679688 C 339.496094 204.582031 339.292969 204.445312 339.113281 204.265625 C 338.933594 204.085938 338.792969 203.878906 338.699219 203.644531 C 338.601562 203.410156 338.550781 203.167969 338.550781 202.914062 C 338.550781 202.660156 338.601562 202.417969 338.699219 202.183594 C 338.792969 201.949219 338.933594 201.742188 339.113281 201.5625 C 339.292969 201.382812 339.496094 201.246094 339.730469 201.148438 C 339.964844 201.054688 340.210938 201.003906 340.464844 201.003906 C 340.71875 201.003906 340.960938 201.054688 341.195312 201.148438 C 341.429688 201.246094 341.636719 201.382812 341.816406 201.5625 C 341.996094 201.742188 342.132812 201.949219 342.230469 202.183594 C 342.328125 202.417969 342.375 202.660156 342.375 202.914062 Z M 342.375 202.914062 " fill-opacity="1" fill-rule="nonzero"/><path fill="#000000" d="M 325.898438 198.003906 C 324.929688 197.839844 324.019531 198.492188 323.855469 199.457031 C 323.691406 200.421875 324.34375 201.335938 325.308594 201.496094 C 326.277344 201.660156 327.1875 201.007812 327.351562 200.042969 C 327.515625 199.078125 326.863281 198.164062 325.898438 198.003906 Z M 325.898438 198.003906 " fill-opacity="1" fill-rule="nonzero"/><path fill="#000000" d="M 326.988281 213.964844 C 326.769531 213.820312 326.710938 213.53125 326.855469 213.3125 C 326.996094 213.097656 327.289062 213.039062 327.503906 213.179688 C 327.554688 213.210938 332.636719 216.464844 337.71875 213.511719 C 337.945312 213.382812 338.230469 213.460938 338.359375 213.683594 C 338.492188 213.90625 338.414062 214.195312 338.191406 214.324219 C 336.417969 215.355469 334.664062 215.710938 333.089844 215.710938 C 329.703125 215.710938 327.144531 214.0625 326.988281 213.964844 Z M 326.988281 213.964844 " fill-opacity="1" fill-rule="nonzero"/><path fill="#000000" d="M 326.480469 187.878906 C 323.972656 187.902344 322.398438 189.144531 321.617188 189.988281 C 321.234375 190.40625 321.140625 191.011719 321.371094 191.527344 C 321.652344 192.167969 322.355469 192.519531 323.039062 192.351562 C 324.242188 192.054688 325.546875 192.089844 327.605469 192.097656 C 330.316406 192.109375 329.96875 189.871094 329.96875 189.871094 C 329.96875 189.871094 329.699219 187.847656 326.480469 187.878906 Z M 326.480469 187.878906 " fill-opacity="1" fill-rule="nonzero"/><path fill="#000000" d="M 344.152344 190.851562 C 347.226562 191.757812 350.066406 194.5625 350.746094 195.632812 C 351.082031 196.164062 350.992188 196.769531 350.542969 197.179688 C 349.984375 197.6875 349 197.773438 348.214844 197.371094 C 346.832031 196.667969 343.90625 195.175781 341.371094 194.457031 C 338.03125 193.515625 339.195312 191.515625 339.195312 191.515625 C 339.195312 191.515625 340.199219 189.691406 344.152344 190.851562 Z M 344.152344 190.851562 " fill-opacity="1" fill-rule="nonzero"/><path fill="#000000" d="M 374.5625 193.902344 C 333.734375 189.355469 339.648438 173.132812 339.648438 173.132812 C 380.863281 170.902344 374.5625 193.90625 374.5625 193.902344 Z M 374.5625 193.902344 " fill-opacity="1" fill-rule="nonzero"/><path fill="#000000" d="M 382.601562 200.105469 L 360.757812 213.117188 L 362.589844 188.371094 Z M 382.601562 200.105469 " fill-opacity="1" fill-rule="nonzero"/><path fill="#f4a27a" d="M 371.507812 207.109375 C 367.148438 204.742188 361.691406 206.355469 359.324219 210.714844 C 356.957031 215.070312 358.574219 220.523438 362.933594 222.890625 C 367.292969 225.253906 372.75 223.640625 375.117188 219.28125 C 377.484375 214.925781 375.871094 209.472656 371.507812 207.109375 Z M 371.507812 207.109375 " fill-opacity="1" fill-rule="nonzero"/><path fill="#f4a27a" d="M 363.613281 216.371094 C 366.167969 210.035156 371.722656 213.246094 371.722656 213.246094 " fill-opacity="1" fill-rule="nonzero"/><path fill="#f4a27a" d="M 344.808594 263.304688 C 327.585938 263.304688 334.144531 251.953125 334.144531 251.953125 L 340.246094 250.980469 L 369.835938 251.269531 C 369.4375 253.066406 362.03125 263.304688 344.808594 263.304688 Z M 344.808594 263.304688 " fill-opacity="1" fill-rule="nonzero"/><path fill="#f4a27a" d="M 357.28125 328.863281 L 335.089844 331.921875 L 335.492188 343.003906 L 357.765625 347.582031 C 357.765625 347.578125 357.375 332.679688 357.28125 328.863281 Z M 357.28125 328.863281 " fill-opacity="1" fill-rule="nonzero"/><path fill="#000000" d="M 320.804688 309.609375 C 320.773438 309.515625 317.554688 300.40625 319.34375 290.230469 C 321.113281 280.140625 322.609375 275.597656 322.625 275.554688 C 322.707031 275.308594 322.972656 275.175781 323.21875 275.257812 C 323.464844 275.339844 323.597656 275.605469 323.515625 275.851562 C 323.503906 275.894531 322.023438 280.386719 320.269531 290.394531 C 318.527344 300.316406 321.660156 309.203125 321.691406 309.289062 C 321.777344 309.535156 321.652344 309.804688 321.40625 309.890625 C 321.355469 309.910156 321.300781 309.921875 321.246094 309.921875 C 321.054688 309.921875 320.875 309.800781 320.804688 309.609375 Z M 320.804688 309.609375 " fill-opacity="1" fill-rule="nonzero"/><path fill="#000000" d="M 329.394531 307.152344 L 331.171875 303.648438 L 335.011719 305.511719 L 333.308594 309.023438 Z M 329.394531 307.152344 " fill-opacity="1" fill-rule="nonzero"/><path fill="#000000" d="M 310.777344 350.160156 L 310.195312 352.347656 C 310.070312 352.816406 310.414062 352.957031 310.695312 352.550781 L 312.007812 350.652344 C 311.804688 350.113281 311.328125 349.894531 310.777344 350.160156 Z M 310.777344 350.160156 " fill-opacity="1" fill-rule="nonzero"/><path fill="#7ec4cf" d="M 329.546875 306.820312 L 331.507812 307.761719 L 333.46875 308.691406 L 316.941406 343.863281 L 316.855469 344.050781 L 316.820312 344.03125 L 311.882812 350.902344 C 311.667969 350.398438 311.191406 350.1875 310.660156 350.402344 L 312.636719 342.316406 L 312.582031 342.292969 L 312.703125 342.039062 Z M 329.546875 306.820312 " fill-opacity="1" fill-rule="nonzero"/><path fill="#f4a27a" d="M 331.011719 303.988281 L 331.460938 303.101562 C 332.082031 301.867188 333.433594 301.292969 334.480469 301.8125 C 335.492188 302.320312 335.847656 303.671875 335.292969 304.886719 L 334.855469 305.839844 Z M 331.011719 303.988281 " fill-opacity="1" fill-rule="nonzero"/><path fill="#f4a27a" d="M 300.949219 349.027344 C 301.855469 349.371094 302.863281 349.1875 303.578125 348.546875 L 309.855469 342.933594 C 312.753906 340.335938 317.355469 338.523438 321.070312 340.414062 C 322.21875 340.996094 323.152344 341.960938 324.191406 342.710938 C 326.828125 344.621094 330.011719 344.425781 333.050781 343.730469 C 335.195312 343.238281 337.25 342.355469 339.09375 341.160156 C 339.652344 340.796875 340.191406 340.40625 340.707031 339.980469 C 340.785156 339.914062 341.246094 339.613281 341.25 339.496094 C 341.25 339.496094 341.589844 331.558594 341.589844 331.558594 L 318.34375 331.210938 C 314.019531 331.144531 309.917969 332.984375 307.097656 336.261719 L 299.816406 344.710938 C 298.605469 346.117188 299.191406 348.359375 300.949219 349.027344 Z M 300.949219 349.027344 " fill-opacity="1" fill-rule="nonzero"/><path fill="#000000" d="M 357.484375 328.824219 C 357.4375 328.570312 357.609375 328.324219 357.863281 328.28125 L 399.183594 320.75 L 386.597656 294.121094 C 386.488281 293.886719 386.585938 293.605469 386.824219 293.492188 C 387.058594 293.386719 387.335938 293.484375 387.449219 293.71875 L 400.292969 320.902344 C 400.355469 321.035156 400.355469 321.1875 400.285156 321.316406 C 400.21875 321.445312 400.097656 321.535156 399.953125 321.5625 L 358.03125 329.207031 C 358.003906 329.210938 357.976562 329.214844 357.945312 329.214844 C 357.722656 329.210938 357.527344 329.050781 357.484375 328.824219 Z M 357.484375 328.824219 " fill-opacity="1" fill-rule="nonzero"/><path fill="#7ec4cf" d="M 221.292969 269.484375 L 324.710938 269.484375 L 349.066406 345.332031 L 245.765625 345.332031 Z M 221.292969 269.484375 " fill-opacity="1" fill-rule="nonzero"/><path fill="#7ec4cf" d="M 245.765625 343.496094 L 382.601562 343.496094 L 382.601562 353.179688 L 245.765625 353.179688 Z M 245.765625 343.496094 " fill-opacity="1" fill-rule="nonzero"/><path fill="#ffffff" d="M 286.933594 316.269531 C 286.933594 316.714844 286.890625 317.152344 286.800781 317.589844 C 286.714844 318.023438 286.585938 318.445312 286.417969 318.855469 C 286.246094 319.265625 286.039062 319.65625 285.792969 320.023438 C 285.546875 320.394531 285.265625 320.734375 284.949219 321.050781 C 284.636719 321.363281 284.296875 321.644531 283.925781 321.890625 C 283.554688 322.136719 283.167969 322.34375 282.757812 322.515625 C 282.347656 322.683594 281.921875 322.8125 281.488281 322.898438 C 281.050781 322.984375 280.613281 323.027344 280.167969 323.027344 C 279.722656 323.027344 279.285156 322.984375 278.847656 322.898438 C 278.414062 322.8125 277.988281 322.683594 277.578125 322.515625 C 277.167969 322.34375 276.777344 322.136719 276.410156 321.890625 C 276.039062 321.644531 275.699219 321.363281 275.382812 321.050781 C 275.070312 320.734375 274.789062 320.394531 274.542969 320.023438 C 274.296875 319.65625 274.089844 319.265625 273.917969 318.855469 C 273.746094 318.445312 273.621094 318.023438 273.53125 317.589844 C 273.445312 317.152344 273.402344 316.714844 273.402344 316.269531 C 273.402344 315.824219 273.445312 315.386719 273.53125 314.953125 C 273.621094 314.515625 273.746094 314.09375 273.917969 313.683594 C 274.089844 313.273438 274.296875 312.882812 274.542969 312.515625 C 274.789062 312.144531 275.070312 311.804688 275.382812 311.492188 C 275.699219 311.175781 276.039062 310.894531 276.410156 310.648438 C 276.777344 310.402344 277.167969 310.195312 277.578125 310.023438 C 277.988281 309.855469 278.414062 309.726562 278.847656 309.640625 C 279.285156 309.554688 279.722656 309.511719 280.167969 309.511719 C 280.613281 309.511719 281.050781 309.554688 281.488281 309.640625 C 281.921875 309.726562 282.347656 309.855469 282.757812 310.023438 C 283.167969 310.195312 283.554688 310.402344 283.925781 310.648438 C 284.296875 310.894531 284.636719 311.175781 284.949219 311.492188 C 285.265625 311.804688 285.546875 312.144531 285.792969 312.515625 C 286.039062 312.882812 286.246094 313.273438 286.417969 313.683594 C 286.585938 314.09375 286.714844 314.515625 286.800781 314.953125 C 286.890625 315.386719 286.933594 315.824219 286.933594 316.269531 Z M 286.933594 316.269531 " fill-opacity="1" fill-rule="nonzero"/><path fill="#f4a27a" d="M 81.4375 191.789062 C 81.4375 191.789062 29.941406 260.46875 29.941406 260.46875 C 18.503906 276.324219 -6.78125 259.28125 3.796875 242.742188 L 34.042969 197.5625 Z M 81.4375 191.789062 " fill-opacity="1" fill-rule="nonzero"/><path fill="#c3a5c2" d="M 64.464844 235.980469 L 18.363281 205.660156 C 29.855469 187.898438 58.953125 138.671875 78.050781 144.949219 C 129.960938 165.3125 73.011719 221.953125 64.464844 235.980469 Z M 64.464844 235.980469 " fill-opacity="1" fill-rule="nonzero"/><path fill="#c3a5c2" d="M 165.714844 200.335938 L 188.394531 195.113281 C 187.0625 146.558594 154.023438 144.402344 154.023438 144.402344 Z M 165.714844 200.335938 " fill-opacity="1" fill-rule="nonzero"/><path fill="#c3a5c2" d="M 61.148438 175.867188 L 74.265625 270.953125 L 155.785156 270.953125 C 163.152344 238.839844 189.726562 154.171875 158.34375 145.277344 C 130.621094 137.417969 110.1875 137.414062 73.257812 144.199219 C 61.707031 144.902344 64.535156 168.226562 61.148438 175.867188 Z M 61.148438 175.867188 " fill-opacity="1" fill-rule="nonzero"/><path fill="#000000" d="M 71.445312 230.796875 L 62.652344 193.664062 C 62.601562 193.449219 62.734375 193.238281 62.945312 193.1875 C 63.164062 193.136719 63.375 193.269531 63.425781 193.480469 L 72.21875 230.613281 C 72.265625 230.828125 72.132812 231.039062 71.921875 231.089844 C 71.894531 231.097656 71.863281 231.101562 71.832031 231.101562 C 71.652344 231.101562 71.488281 230.976562 71.445312 230.796875 Z M 71.445312 230.796875 " fill-opacity="1" fill-rule="nonzero"/><path fill="#000000" d="M 166.550781 218.394531 C 166.335938 218.363281 166.183594 218.160156 166.214844 217.945312 L 171.507812 180.8125 C 171.539062 180.597656 171.726562 180.441406 171.957031 180.476562 C 172.171875 180.507812 172.324219 180.710938 172.292969 180.925781 L 167 218.058594 C 166.972656 218.257812 166.800781 218.398438 166.605469 218.398438 C 166.589844 218.398438 166.570312 218.398438 166.550781 218.394531 Z M 166.550781 218.394531 " fill-opacity="1" fill-rule="nonzero"/><path fill="#f4a27a" d="M 111.578125 234.433594 L 140.984375 235.4375 L 154.023438 207.734375 C 120.394531 194.316406 107.566406 217.015625 107.566406 217.015625 Z M 111.578125 234.433594 " fill-opacity="1" fill-rule="nonzero"/><path fill="#f4a27a" d="M 113.027344 233.917969 L 22.5 266.164062 L 17.214844 232.496094 L 109.617188 216.664062 Z M 113.027344 233.917969 " fill-opacity="1" fill-rule="nonzero"/><path fill="#000000" d="M 27.289062 230.769531 C 27.253906 230.554688 27.398438 230.351562 27.613281 230.3125 L 49.695312 226.527344 C 49.929688 226.496094 50.121094 226.640625 50.15625 226.855469 C 50.191406 227.070312 50.046875 227.273438 49.828125 227.3125 L 27.746094 231.09375 C 27.722656 231.101562 27.703125 231.101562 27.679688 231.101562 C 27.492188 231.101562 27.320312 230.964844 27.289062 230.769531 Z M 27.289062 230.769531 " fill-opacity="1" fill-rule="nonzero"/><path fill="#ffffff" d="M 239.125 193.132812 C 211.820312 183.882812 145.058594 195.113281 145.058594 195.113281 L 107.855469 282.402344 L 113.980469 289.203125 Z M 239.125 193.132812 " fill-opacity="1" fill-rule="nonzero"/><path fill="#000000" d="M 199.542969 269.269531 C 193.933594 280.144531 178.527344 280.214844 178.527344 280.214844 L 221.199219 195.574219 L 239.125 193.132812 Z M 199.542969 269.269531 " fill-opacity="1" fill-rule="nonzero"/><path fill="#7ec4cf" d="M 181.402344 279.816406 L 113.976562 289.207031 L 150.277344 201.707031 L 224.609375 195.109375 Z M 181.402344 279.816406 " fill-opacity="1" fill-rule="nonzero"/><g mask="url(#91e214cfe3)"><g transform="matrix(1, 0, 0, 1, 113, 194)"><g clip-path="url(#2a73db7ede)"><g clip-path="url(#9a9d98d2ee)"><path fill="#000000" d="M 68.402344 85.816406 L 0.976562 95.207031 L 37.277344 7.707031 L 111.609375 1.109375 Z M 68.402344 85.816406 " fill-opacity="1" fill-rule="nonzero"/></g></g></g></g><path fill="#ffffff" d="M 205.1875 191.054688 L 221.808594 152.910156 L 230.375 152.910156 L 239.125 193.132812 Z M 205.1875 191.054688 " fill-opacity="1" fill-rule="nonzero"/><path fill="#f4a27a" d="M 209.664062 249.640625 L 191.308594 236.230469 C 190.226562 235.441406 189.886719 233.980469 190.515625 232.796875 C 191.191406 231.519531 192.753906 231.003906 194.058594 231.625 L 207.671875 238.117188 L 191.714844 226.507812 C 190.722656 225.785156 190.398438 224.453125 190.945312 223.355469 C 191.570312 222.097656 193.105469 221.59375 194.355469 222.242188 L 210.027344 230.355469 L 192.585938 216.710938 C 191.390625 215.777344 191.074219 214.09375 191.859375 212.789062 C 192.738281 211.316406 194.671875 210.875 196.105469 211.820312 L 214.925781 224.195312 L 202.472656 212.242188 C 201.5625 211.367188 201.558594 209.910156 202.46875 209.03125 C 203.238281 208.289062 204.429688 208.195312 205.304688 208.808594 L 226.285156 223.5625 C 226.285156 223.5625 234.402344 230.339844 226.027344 243.109375 C 217.648438 255.878906 207.757812 253.464844 207.757812 253.464844 Z M 209.664062 249.640625 " fill-opacity="1" fill-rule="nonzero"/><path fill="#000000" d="M 155.585938 96.121094 C 174.597656 77.855469 154.074219 70.371094 154.074219 70.371094 Z M 155.585938 96.121094 " fill-opacity="1" fill-rule="nonzero"/><path fill="#f4a27a" d="M 117.671875 100.332031 L 105.96875 146.277344 L 133.324219 147.164062 L 137.742188 121.90625 Z M 117.671875 100.332031 " fill-opacity="1" fill-rule="nonzero"/><path fill="#000000" d="M 137.277344 124.726562 L 116.0625 113.84375 C 115.433594 130.96875 135.039062 137.308594 135.039062 137.308594 Z M 137.277344 124.726562 " fill-opacity="1" fill-rule="nonzero"/><path fill="#f4a27a" d="M 110.640625 98.542969 C 109.785156 123 124.011719 126.191406 124.011719 126.191406 C 136.441406 131.839844 145.988281 127.449219 151.660156 118.226562 C 156.117188 110.976562 157.160156 93.078125 157.402344 85.746094 C 157.476562 83.554688 155.511719 77.046875 154.257812 75.246094 C 141.496094 56.855469 111.914062 62.089844 110.640625 98.542969 Z M 110.640625 98.542969 " fill-opacity="1" fill-rule="nonzero"/><path fill="#000000" d="M 150.203125 102.929688 C 151.179688 102.910156 151.988281 103.683594 152.011719 104.65625 C 152.03125 105.628906 151.257812 106.441406 150.285156 106.460938 C 149.308594 106.484375 148.5 105.710938 148.476562 104.734375 C 148.457031 103.761719 149.230469 102.953125 150.203125 102.929688 Z M 150.203125 102.929688 " fill-opacity="1" fill-rule="nonzero"/><path fill="#000000" d="M 134.902344 99.640625 C 135.875 99.621094 136.6875 100.394531 136.707031 101.367188 C 136.730469 102.339844 135.957031 103.148438 134.980469 103.171875 C 134.007812 103.191406 133.195312 102.421875 133.175781 101.445312 C 133.152344 100.472656 133.925781 99.664062 134.902344 99.640625 Z M 134.902344 99.640625 " fill-opacity="1" fill-rule="nonzero"/><path fill="#000000" d="M 141.402344 111.605469 C 141.394531 111.324219 141.617188 111.089844 141.898438 111.082031 L 144.289062 111.015625 L 143.835938 105.300781 C 143.816406 105.019531 144.023438 104.773438 144.308594 104.753906 C 144.582031 104.710938 144.832031 104.941406 144.855469 105.222656 L 145.351562 111.46875 C 145.363281 111.605469 145.3125 111.746094 145.222656 111.851562 C 145.128906 111.953125 144.996094 112.015625 144.855469 112.019531 L 141.925781 112.101562 C 141.921875 112.101562 141.917969 112.101562 141.910156 112.101562 C 141.632812 112.101562 141.40625 111.882812 141.402344 111.605469 Z M 141.402344 111.605469 " fill-opacity="1" fill-rule="nonzero"/><path fill="#000000" d="M 138.25 89.160156 C 133.203125 88.011719 130.03125 89.484375 128.015625 90.5 C 127.03125 90.996094 126.417969 91.992188 126.71875 93.050781 C 127.03125 94.160156 128.167969 94.78125 129.285156 94.511719 C 132.292969 93.789062 135.472656 93.824219 137.640625 93.992188 C 139.078125 94.097656 140.292969 92.949219 140.257812 91.507812 C 140.234375 90.34375 139.382812 89.414062 138.25 89.160156 Z M 138.25 89.160156 " fill-opacity="1" fill-rule="nonzero"/><path fill="#000000" d="M 149.722656 91.753906 C 153.113281 92.210938 154.636719 94.550781 155.585938 96.121094 C 156.050781 96.886719 156.148438 98.007812 155.671875 98.910156 C 155.175781 99.855469 154.3125 100.097656 153.707031 99.503906 C 152.078125 97.910156 150.128906 96.980469 148.761719 96.476562 C 147.851562 96.140625 147.433594 94.691406 147.847656 93.347656 C 148.183594 92.265625 148.960938 91.652344 149.722656 91.753906 Z M 149.722656 91.753906 " fill-opacity="1" fill-rule="nonzero"/><path fill="#000000" d="M 104.398438 82.101562 C 105.605469 75.582031 109.378906 69.722656 115.703125 66.101562 C 123.808594 61.460938 134.339844 60.359375 143.757812 61.472656 C 151.640625 62.402344 158.304688 66.308594 160.265625 73.429688 C 163.191406 84.050781 153.878906 87.390625 149.1875 87.144531 C 146.835938 87.023438 144.613281 86.265625 142.585938 85.199219 C 135.300781 81.359375 124.648438 79.628906 124.648438 79.628906 C 123.152344 96.34375 110.5 104.300781 110.5 104.300781 C 110.5 104.300781 102.941406 89.953125 104.398438 82.101562 Z M 104.398438 82.101562 " fill-opacity="1" fill-rule="nonzero"/><path fill="#f4a27a" d="M 109.449219 89.0625 C 114.203125 88.777344 118.292969 92.398438 118.578125 97.152344 C 118.863281 101.90625 115.238281 105.988281 110.480469 106.273438 C 105.726562 106.558594 101.640625 102.9375 101.355469 98.183594 C 101.066406 93.433594 104.691406 89.347656 109.449219 89.0625 Z M 109.449219 89.0625 " fill-opacity="1" fill-rule="nonzero"/><path fill="#000000" d="M 112.851562 101.171875 C 112.84375 99.105469 112.261719 97.507812 111.125 96.421875 C 109.367188 94.738281 106.800781 94.828125 106.789062 94.824219 C 106.542969 94.839844 106.269531 94.621094 106.257812 94.335938 C 106.242188 94.054688 106.460938 93.816406 106.742188 93.804688 C 106.859375 93.796875 109.746094 93.695312 111.824219 95.675781 C 113.175781 96.964844 113.863281 98.8125 113.871094 101.171875 C 113.871094 101.453125 113.644531 101.683594 113.359375 101.683594 C 113.078125 101.683594 112.851562 101.457031 112.851562 101.171875 Z M 112.851562 101.171875 " fill-opacity="1" fill-rule="nonzero"/><path fill="#f4a27a" d="M 147.0625 144.257812 C 147.0625 144.257812 140.070312 160.757812 121.855469 159.9375 C 103.640625 159.121094 96.625 140.585938 96.625 140.585938 C 124.71875 135.976562 147.0625 144.257812 147.0625 144.257812 Z M 147.0625 144.257812 " fill-opacity="1" fill-rule="nonzero"/><path fill="#000000" d="M 132.730469 115.875 C 132.589844 115.632812 132.671875 115.320312 132.914062 115.175781 C 133.160156 115.035156 133.46875 115.117188 133.613281 115.359375 C 136.261719 119.878906 143.171875 118.113281 143.242188 118.097656 C 143.503906 118.023438 143.792969 118.183594 143.867188 118.457031 C 143.941406 118.730469 143.777344 119.011719 143.503906 119.082031 C 143.371094 119.121094 141.921875 119.492188 140.074219 119.492188 C 137.625 119.492188 134.464844 118.839844 132.730469 115.875 Z M 132.730469 115.875 " fill-opacity="1" fill-rule="nonzero"/><path fill="#ffffff" d="M 107.851562 138.882812 L 122.550781 154.464844 L 134.554688 140.121094 L 148.644531 142.105469 L 140.261719 174.078125 L 122.699219 161.628906 L 104.210938 170.769531 L 93.898438 140.917969 Z M 107.851562 138.882812 " fill-opacity="1" fill-rule="nonzero"/><path fill="#000000" d="M 122.699219 205.5 C 122.476562 205.5 122.296875 205.320312 122.296875 205.097656 L 122.296875 162.535156 C 122.296875 162.3125 122.476562 162.132812 122.699219 162.132812 C 122.925781 162.132812 123.105469 162.3125 123.105469 162.535156 L 123.105469 205.097656 C 123.105469 205.320312 122.925781 205.5 122.699219 205.5 Z M 122.699219 205.5 " fill-opacity="1" fill-rule="nonzero"/><g mask="url(#07c9c3fa77)"><g transform="matrix(1, 0, 0, 1, 326, 211)"><g clip-path="url(#ff876a5e31)"><g clip-path="url(#c2b189e824)"><path fill="#c3a5c2" d="M 2.242188 4.128906 C 2.75 4.867188 3.59375 5.183594 4.402344 5.359375 C 6.183594 5.75 8.128906 5.621094 9.671875 4.53125 C 10.023438 4.28125 10.375 3.9375 10.433594 3.472656 C 10.488281 3.015625 10.230469 2.570312 9.890625 2.324219 C 9.550781 2.082031 9.140625 2.003906 8.742188 1.960938 C 7.082031 1.777344 5.421875 2.085938 3.761719 1.980469 C 3.207031 1.949219 2.464844 1.566406 2.074219 2.082031 C 1.671875 2.605469 1.910156 3.652344 2.242188 4.128906 Z M 2.242188 4.128906 " fill-opacity="1" fill-rule="nonzero"/></g></g></g></g></svg>